<svg xmlns="http://www.w3.org/2000/svg" viewBox="0 0 232.88 74.79">
  <path fill="#fff" fill-rule="evenodd" d="M28.84 63.83h20.5l3.41 8.32c.58 1.42-1.55 2.65-3.44 2.65H28.84c-1.89 0-4-1.25-3.44-2.65zM3.98 31.2h11.18v4H3.98v14.37c0 4 2.31 6.36 6.36 6.36h57.42c4 0 6.36-2.31 6.36-6.36V10.34c0-4-2.31-6.36-6.36-6.36H10.34c-4 0-6.36 2.31-6.36 6.36V25.7h-4V8.49A8.51 8.51 0 0 1 8.49 0h61.13a8.51 8.51 0 0 1 8.48 8.49v42.9a8.51 8.51 0 0 1-8.48 8.51H8.49A8.51 8.51 0 0 1 0 51.39V31.2h4z"/>
  <path fill="#fff" d="M50.11 31.15h11.18v4H50.11z"/>
  <circle cx="64.05" cy="33.25" r="4" fill="#fff"/>
  <path fill="none" stroke="#fff" stroke-width="4.25" stroke-miterlimit="22.93" d="M13.32 31.76c1.94 6.06 3.87 12.13 5.47 8.28s2.84-17.59 4.47-17.77 3.58 13.23 5.22 14.1 2.8-10.78 4.22-9.25 3.08 16.22 4.53 14.2 2.7-20.78 4.74-25.65 4.87 4.13 6.66 9.58 2.58 7.33 3.36 9.21"/>
  <g fill="#fff">
    <path d="M118.76 38.68q0 3.78-1.71 5.49t-5.49 1.73h-4.32v2.5h-6.48v-2.5h-4.32q-3.78 0-5.49-1.71t-1.71-5.51v-7.2q0-3.78 1.71-5.49t5.49-1.71h4.32v-2.52h6.48v2.52h4.32q3.78 0 5.49 1.71t1.71 5.49v7.2zm-23 0a1.91 1.91 0 0 0 2.08 2.16h3.24V29.32h-3.24a1.91 1.91 0 0 0-2.16 2.16v7.2zm16.56-7.2a1.91 1.91 0 0 0-2.16-2.16h-3.32v11.52h3.24a1.91 1.91 0 0 0 2.16-2.16v-7.2zM134.06 28.6h6.66v19.08h-6.3V37.24l-6.12 10.44h-6.66V28.6h6.3v10.44zM153.32 40.48h-2.7v7.2h-6.3V28.6h6.3v7h2.88l2-4a5.79 5.79 0 0 1 3.34-3.07 4.83 4.83 0 0 1 1.58-.29 12.73 12.73 0 0 1 2.23.18l.9.18v4.86h-1.26a1.9 1.9 0 0 0-1.8 1.08l-1.8 3.6 5.4 9.54h-6.84zM182.84 47.32a113.16 113.16 0 0 1-11.88.72 5.08 5.08 0 0 1-5.4-5.4v-8.28a5.3 5.3 0 0 1 5.76-5.76h11.52v4.86h-9.54a1.27 1.27 0 0 0-1.46 1.44v7a1.23 1.23 0 0 0 1.26 1.26q3.24 0 9.72-.54v4.68zM198.14 28.6h6.7v19.08h-6.3V37.24l-6.12 10.44h-6.66V28.6h6.3v10.44zM222.98 44.44h-4.68l-3.6-6.48v9.72h-6.3V28.6h6.66l5.58 10.08 5.58-10.08h6.62v19.08h-6.3v-9.72z"/>
  </g>
</svg>
