<?xml version="1.0" encoding="utf-8"?>
<svg xmlns="http://www.w3.org/2000/svg" viewBox="0 0 31 33">
  <path fill="#061125" d="M24 22.15H7a.61.61 0 0 0 0 1.22h17a.61.61 0 0 0 0-1.22zm-3.1-11.72h6.22a.61.61 0 0 0 .34-1.12L18.75.46a.61.61 0 0 0-1 .43v6.34a3.21 3.21 0 0 0 3.2 3.2zm-2-8l6.72 6.82H20.9a2 2 0 0 1-2-2V2.39zm5 23.93H7a.61.61 0 1 0 0 1.22h17a.61.61 0 0 0 0-1.22zM7 6.7h7.8a.61.61 0 0 0 0-1.22H7A.61.61 0 0 0 7 6.7zm20.09 4a.61.61 0 0 0-.61.61v18a2.18 2.18 0 0 1-2.18 2.18H6.67a2.18 2.18 0 0 1-2.17-2.18V3.62A2.17 2.17 0 0 1 6.67 1.5H16.8a.61.61 0 0 0 0-1.22H6.67a3.39 3.39 0 0 0-3.4 3.32v25.72a3.41 3.41 0 0 0 3.4 3.4h17.65a3.41 3.41 0 0 0 3.4-3.4v-18a.61.61 0 0 0-.61-.61zM7 10.87h7.8a.61.61 0 0 0 0-1.22H7a.61.61 0 0 0 0 1.22zm17 2.94H7A.61.61 0 0 0 7 15h17a.61.61 0 0 0 0-1.22zM24 18H7a.61.61 0 0 0 0 1.2h17a.61.61 0 0 0 0-1.2z"/>
</svg>
