<?xml version="1.0" encoding="utf-8"?>
<svg xmlns="http://www.w3.org/2000/svg" viewBox="0 0 46 46">
  <path d="M44.5 21.9c-.4.4-1 .4-1.4 0l-9.3-9.3-.2-.2-4-4-.2-.2L23 1.8 2.9 21.9c-.4.4-1 .4-1.4 0-.4-.4-.4-1 0-1.4L22.2-.2l.1-.1c.2-.2.5-.3.7-.3.3 0 .5.1.7.3v.1L29 5.2V2.4c0-.5.7-1.4 1.3-1.4h4.2c.3 0 .3.3.5.5.1.2 0 .7 0 .9v8.9l9.3 9c.4.5.6 1.2.2 1.6zM33 3h-2v4.2l2 2.1V3zM8.5 20.1c.6 0 1.5.5 1.5 1v19.7c0 1.1.4 2.2 1.6 2.2H18V29.4c0-.6.3-1.4.8-1.4h8.3c.6 0 .8.9.8 1.4V43h6.4c1.1 0 1.6-1 1.6-2.2V21.1c0-.6.9-1 1.5-1s1.5.5 1.5 1v19.7c0 2.3-2.3 4.2-4.6 4.2H11.6C9.3 45 7 43.1 7 40.8V21.1c0-.5.9-1 1.5-1zM26 43V30h-6v13h6z"/>
</svg>
