<?xml version="1.0" encoding="utf-8"?>
<svg xmlns="http://www.w3.org/2000/svg" viewBox="0 0 32 32">
  <path d="M16 16.2a8.1 8.1 0 0 1-7.58-5.4 8.26 8.26 0 0 1 2.49-8.95A8 8 0 0 1 20 1.06a8.26 8.26 0 0 1 3.89 8.59A8.1 8.1 0 0 1 16 16.2zm0-12.09a4 4 0 1 0 3.93 4 4 4 0 0 0-3.93-4zm9.23 13.07c.88 1.86-.92 3-2.33 3.83a13.17 13.17 0 0 1-5.34 1.54c1.91 1.9 3.81 3.8 5.69 5.74a2.19 2.19 0 0 1 .82 1.93 2.12 2.12 0 0 1-2.6 1.69A6.75 6.75 0 0 1 19.31 30L16 26.68l-2.56 2.6c-.77.78-1.78 2.28-2.88 2.63A2.12 2.12 0 0 1 8 30.37a2.07 2.07 0 0 1 .73-2c1.07-1.11 2.17-2.19 3.25-3.29l2.49-2.52a12.11 12.11 0 0 1-7.17-2.85 2 2 0 0 1 .2-3.32c1.23-.77 2.28.26 3.3.86a10.55 10.55 0 0 0 8.45.86 9.74 9.74 0 0 0 2.57-1.27c1.11-.76 2.66-1.17 3.41.33.15.33-.12-.23 0 .01z" fill="#fff"/>
</svg>
