<?xml version="1.0" encoding="utf-8"?>
<svg xmlns="http://www.w3.org/2000/svg" width="35" height="28" viewBox="0 0 35 28">
  <g fill="#FFF" fill-rule="evenodd">
    <path d="M35 .63V.62.604.578l-.003-.022V.553.54c-.002-.004-.002-.01-.003-.014 0-.007-.003-.013-.004-.02l-.006-.03V.475l-.006-.02c-.003-.01-.006-.02-.01-.028 0-.004-.002-.01-.004-.013L34.96.4 34.95.38l-.014-.024-.006-.012-.006-.01-.02-.033-.008-.012s-.002 0-.002-.002c-.007-.01-.014-.018-.022-.026-.004-.006-.01-.01-.014-.017l-.006-.007-.01-.01-.024-.022-.01-.01c-.003 0-.004-.002-.006-.003-.002 0-.004-.003-.006-.005-.002 0-.004-.002-.005-.003L34.776.17 34.76.16l-.03-.02-.02-.01c-.01-.005-.017-.01-.026-.013l-.01-.005c-.002 0-.004 0-.007-.002l-.01-.004-.02-.008-.024-.008L34.6.087l-.015-.004-.03-.007c-.006 0-.012-.002-.017-.003h-.005l-.028-.004-.025-.003h-.054c-.006 0-.013 0-.02.002h-.015c-.005 0-.01 0-.016.002-.007 0-.014.003-.02.004l-.028.005c0 .002-.002.002-.004.002L34.3.088c-.01.003-.02.006-.028.01-.004 0-.008.002-.013.004h-.004L.35 12.996c-.21.08-.35.28-.35.5 0 .223.14.422.35.502l10.11 3.82 3.24 9.81v.005c0 .003.002.006.003.008.008.022.017.043.028.063l.007.013c.01.018.022.037.034.054l.006.007c0 .002.002.003.003.004v.004l.015.016.015.02.013.012.007.007.01.008.01.01c.002.003.006.005.01.008.01.01.02.018.032.026v.002c.003 0 .004 0 .005.002l.01.007c.018.012.036.023.055.033l.01.005c0 .002.002.002.003.003.018.008.036.017.056.023l.013.004.016.005c.023.007.046.013.07.017h.01c.026.005.053.007.08.007h.005c.022 0 .045-.003.067-.006h.01l.015-.004c.017-.003.034-.007.05-.012l.018-.004h.002l.008-.004c.008-.002.016-.006.024-.01l.03-.012c.002 0 .004 0 .005-.002h.003l.015-.01c.01-.004.02-.01.03-.016.008-.004.015-.008.02-.013.003 0 .005-.002.007-.003l.026-.02.016-.012.015-.014.012-.01.047-.05c0-.003.002-.004.003-.006l.005-.006c0-.002.002-.003.003-.004l3.997-5.305c.18-.238.128-.574-.115-.75-.243-.177-.585-.127-.765.11l-1.736 2.306 1.38-3.7 13.06 4.87c.063.023.13.034.195.034.095 0 .19-.024.275-.073.143-.082.24-.222.265-.382L34.995.685V.682c0-.01 0-.018.002-.027L35 .63zm-4.27 1.965L15.11 13.738c-.243.175-.298.51-.12.75.107.145.274.222.443.222.11 0 .224-.033.32-.102L30.676 3.963 16.71 19.366c-.054.052-.098.116-.127.19-.005.013-.01.026-.013.04l-2.32 6.22-2.83-8.575c-.054-.16-.176-.278-.324-.334h-.002l-9.028-3.412 28.665-10.9zm-.494 21.477l-12.204-4.55 15.6-17.205-3.396 21.755z"/>
    <path d="M12.68 16.673c.113 0 .225-.033.322-.102l1.063-.758c.244-.174.3-.51.12-.75-.176-.24-.518-.293-.763-.12l-1.063.76c-.245.174-.3.51-.122.75.107.144.274.22.443.22z"/>
  </g>
</svg>
