<?xml version="1.0" encoding="utf-8"?>
<svg xmlns="http://www.w3.org/2000/svg" width="32" height="32" viewBox="0 0 32 32">
  <path d="M16 4C9.372 4 4 9.373 4 16s5.372 12 12 12c6.627 0 12-5.373 12-12S22.627 4 16 4zm4 5.812c.828 0 1.5.896 1.5 2s-.672 2-1.5 2-1.5-.896-1.5-2 .672-2 1.5-2zm-8.075.013c.828 0 1.5.896 1.5 2s-.672 2-1.5 2-1.5-.896-1.5-2 .672-2 1.5-2zm3.95 13.487c-4.105 0-6.857-2.687-7.352-7.156h.97c.784 3.458 2.91 5.188 6.374 5.188s5.59-1.73 6.375-5.188h1c-.494 4.47-3.262 7.156-7.367 7.156z"/>
</svg>
