<?xml version="1.0" encoding="utf-8"?>
<svg xmlns="http://www.w3.org/2000/svg" viewBox="0 0 31 33">
  <path fill="#061125" d="M22.94 4.53l1-1 .62.62a1 1 0 0 0 1.41 0l.47-.47a1 1 0 0 0 0-1.41l-2-2A1 1 0 0 0 23 .28l-.47.47a1 1 0 0 0 0 1.41l.62.62L21.95 4a15.11 15.11 0 0 0-6.26-1.56V.86a.54.54 0 1 0-1.08 0v1.58A15.11 15.11 0 0 0 8.51 4l-1.2-1.21.62-.62a1 1 0 0 0 0-1.41L7.45.28A1 1 0 0 0 6 .28l-2 2a1 1 0 0 0 0 1.41l.52.48a1 1 0 0 0 1.41 0l.62-.62 1 1a15.23 15.23 0 1 0 15.41 0zm.77-3.43L25.6 3l-.36.36-1.89-1.9.36-.36zM5.22 3.35L4.86 3l1.89-1.9.36.36-1.89 1.89zm10 28.44a14.15 14.15 0 1 1 14.16-14.15 14.17 14.17 0 0 1-14.15 14.15zm.46-16V8.44a.54.54 0 1 0-1.08 0v7.4a1.7 1.7 0 0 0 0 3.24v1.63a.54.54 0 1 0 1.08 0v-1.64a1.7 1.7 0 0 0 0-3.23zm-.54 2.25a.64.64 0 1 1 .64-.64.64.64 0 0 1-.64.64z"/>
</svg>
