<?xml version="1.0" encoding="utf-8"?>
<svg xmlns="http://www.w3.org/2000/svg" viewBox="0 0 32 32">
  <path d="M32 6.09a28.24 28.24 0 0 1-3 3.19.67.67 0 0 0-.25.71v1.1a18.41 18.41 0 0 1-.3 2.64A19.42 19.42 0 0 1 24.64 22a18.3 18.3 0 0 1-15.42 7A18.44 18.44 0 0 1 0 26.05a13.29 13.29 0 0 0 9.73-2.72 6.61 6.61 0 0 1-6.13-4.55 7.32 7.32 0 0 0 3-.12A6.85 6.85 0 0 1 1 12.14a7.47 7.47 0 0 0 3.11.86 6.66 6.66 0 0 1-1.9-8.8 18.78 18.78 0 0 0 13.54 6.86 6.58 6.58 0 0 1 10.16-6.89 7.33 7.33 0 0 0 .92.79 2.53 2.53 0 0 0 1.45-.22 13 13 0 0 0 2.83-1.25 6.52 6.52 0 0 1-2.88 3.61 13.15 13.15 0 0 0 3.78-1z" fill="#fff"/>
</svg>
