<?xml version="1.0" encoding="utf-8"?>
<svg xmlns="http://www.w3.org/2000/svg" viewBox="0 0 32 32">
  <path d="M32 8.11a2.72 2.72 0 0 1-.59 1.89 24.39 24.39 0 0 1-2.18 3.16 22.3 22.3 0 0 0-2.21 3c-.49.91-.06 1.41.63 2s1.13 1.24 1.71 1.81a11.49 11.49 0 0 1 2.35 2.84c1 2.07-1.53 2-2.82 2.06-1.5 0-3.26.13-4.6-.68a14.77 14.77 0 0 1-2.72-2.68c-.92-1-2-1.39-2.59.07-.38.9 0 2.1-.54 2.92s-1.33.55-2 .55a11.81 11.81 0 0 1-7-2.46 18.93 18.93 0 0 1-4.25-4.69 48.78 48.78 0 0 1-4.38-7.58c-.43-.91-1.52-2.49.1-2.67a13.82 13.82 0 0 1 1.49 0h2.33a2.58 2.58 0 0 1 1.55.24 1.78 1.78 0 0 1 .62.9c.34.72.7 1.48 1.1 2.21s.86 1.68 1.35 2.48 1.48 2.51 2.48 2c.78-.36.76-2.13.8-2.85.07-1.11.16-2.8-.46-3.79A2 2 0 0 0 11 8.15c-.35-.14-.42 0-.3-.35a1.52 1.52 0 0 1 .7-.59 6.84 6.84 0 0 1 2.73-.38c1.09 0 3.26-.3 4.15.51s.46 2.47.42 3.45a18.08 18.08 0 0 0 0 3.65c.3 1.69 1.47.91 2.22 0a20 20 0 0 0 2.34-3.67q.47-.91.87-1.86a2.13 2.13 0 0 1 .7-1.17 2.38 2.38 0 0 1 1-.09h4.22c.63-.03 1.6-.19 1.95.46z" fill="#fff"/>
</svg>
