<?xml version="1.0" encoding="utf-8"?>
<svg xmlns="http://www.w3.org/2000/svg" viewBox="0 0 46 46">
  <path d="M46 38.5c0 2.8-2.2 4.5-5 4.5H5c-2.8 0-5-1.7-5-4.5v-29C0 7.3 1.8 5 4 5h20.2l8.1-2.7c.5-.2 1.1 0 1.3.5l.8 2.2H38c2.2 0 4 2.3 4 4.5v2s4 1.8 4 4v23zM4 7c-1.1 0-2 .9-2 2s.9 2 2 2h3.6l11-4H4zm29.1.4L32 4.6v-.2L30 5l-5.5 2-11 4h21.1l-1.5-3.6zM40 9.5c0-1.1-.9-2.5-2-2.5h-2.9l1.5 4H40V9.5zm2 3.5H4c-.7 0-1 .3-2-.1v25.6C2 40.2 3.3 41 5 41h36c1.7 0 3-.8 3-2.5V31h-4c-2.2 0-4-1.8-4-4s1.8-4 4-4h4v-7.5c0-1.1-.9-2.5-2-2.5zm2 16v-4h-4c-1.1 0-2 .9-2 2s.9 2 2 2h4zm-4-2.5h2v2h-2v-2z"/>
</svg>
