<?xml version="1.0" encoding="utf-8"?>
<svg xmlns="http://www.w3.org/2000/svg" viewBox="0 0 46 46">
  <path d="M37 19.3v4.2l-3.8 2-2.3 3.5h-.5l-.3.3V45h.2c0 .3 0 .5-.2.7s-.6.3-.9.3c-.3 0-.6-.2-.8-.4L23 40.1l-5.5 5.5c-.2.2-.5.4-.8.4-.3 0-.5-.1-.7-.3-.2-.2-.1-.5-.1-.7h.2V29.3l-.3-.3h-.5L13 25.5l-3.8-2v-4.2l-2.1-3.6L9 12V7.8l3.8-2.2L15.2 2h4.2L23-.1 26.6 2h4.2l2.3 3.7L37 7.8V12l2.1 3.6-2.1 3.7zm-19 10v13.2l4.3-4.4v-.2c.2-.2.4-.3.7-.3.3 0 .5.1.7.3 0 0-.1.1 0 .2l4.3 4.4V29.3l.2-.3h-1.6L23 31.1 19.4 29h-1.6l.2.3zm16-16.7V9l-2.8-1.9L29.6 4H26l-3-1.8L19.9 4h-3.6l-1.5 3.2L12 9v3.6l-1.8 3.1 1.8 3.1v3.6l2.8 1.7 1.5 3h3.6l3.1 1.8 3.1-1.8h3.6l1.5-3 2.8-1.7v-3.6l1.8-3.1-1.8-3.1z"/>
</svg>
