<?xml version="1.0" encoding="utf-8"?>
<svg xmlns="http://www.w3.org/2000/svg" viewBox="0 0 46 46">
  <path d="M37 25h-.1c-.5 4.1-2.7 7.6-5.9 10v7c0 2.2-1.8 4-4 4H17c-2.2 0-4-1.8-4-4v-7c-3.6-2.7-6-7.1-6-12s2.4-9.2 6-12V4c0-2.2 1.8-4 4-4h10c2.2 0 4 1.8 4 4v7c3.1 2.4 5.3 5.9 5.9 10h.1c1.1 0 2 .9 2 2s-.9 2-2 2zM15 42c0 1.1.9 2 2 2h10c1.1 0 2-.9 2-2v-5.7c-2.1 1.1-4.5 1.7-7 1.7s-4.9-.6-7-1.7V42zM29 4c0-1.1-.9-2-2-2H17c-1.1 0-2 .9-2 2v5.7C17.1 8.6 19.5 8 22 8s4.9.6 7 1.7V4zm-7 6c-7.2 0-13 5.8-13 13s5.8 13 13 13 13-5.8 13-13-5.8-13-13-13zm1 15.8V32c0 .6-.4 1-1 1s-1-.4-1-1v-6.2c-1.2-.4-2-1.5-2-2.8 0-.5.1-.9.3-1.3l-3-3c-.4-.4-.4-1 0-1.4.4-.4 1-.4 1.4 0l3 3c.4-.2.8-.3 1.3-.3 1.7 0 3 1.3 3 3 0 1.3-.8 2.4-2 2.8zM22 22c-.6 0-1 .4-1 1s.4 1 1 1 1-.4 1-1-.4-1-1-1z"/>
</svg>
