<?xml version="1.0" standalone="no"?>
<!DOCTYPE svg PUBLIC "-//W3C//DTD SVG 20010904//EN"
 "http://www.w3.org/TR/2001/REC-SVG-20010904/DTD/svg10.dtd">
<svg version="1.0" xmlns="http://www.w3.org/2000/svg"
 width="256.000000pt" height="256.000000pt" viewBox="0 0 256.000000 256.000000"
 preserveAspectRatio="xMidYMid meet">
<metadata>
Created by potrace 1.11, written by Peter Selinger 2001-2013
</metadata>
<g transform="translate(0.000000,256.000000) scale(0.100000,-0.100000)"
fill="#000000" stroke="none">
<path d="M200 2501 c-71 -22 -137 -77 -173 -145 -21 -39 -22 -54 -25 -373 l-3
-333 60 0 61 0 1 268 c0 147 2 279 4 294 10 73 71 145 144 167 53 15 1969 16
2025 0 53 -15 89 -43 117 -92 l24 -42 2 -705 c2 -534 0 -715 -10 -745 -17 -55
-82 -120 -134 -134 -30 -8 -326 -11 -1030 -9 l-988 3 -45 25 c-28 16 -55 43
-75 74 l-30 49 -3 279 -4 278 140 0 140 0 18 -52 c27 -84 71 -172 99 -198 37
-34 95 -33 134 4 27 26 57 110 76 211 3 17 7 41 10 55 3 14 9 50 15 80 17 91
19 103 23 107 4 3 22 -60 33 -111 8 -40 48 -152 62 -173 8 -13 32 -28 53 -34
32 -10 42 -9 63 5 28 18 55 62 71 116 10 34 11 31 34 -74 38 -177 72 -231 140
-219 60 9 87 80 116 303 3 25 8 56 10 70 2 14 7 48 10 75 16 132 52 345 64
376 7 20 9 18 26 -22 9 -24 41 -114 70 -199 29 -85 67 -194 85 -242 l32 -88
172 0 c171 0 173 0 196 -25 86 -92 243 -21 226 101 -10 73 -45 110 -115 120
-43 6 -83 -10 -115 -45 -17 -19 -30 -21 -141 -21 -108 0 -123 2 -128 18 -3 9
-35 105 -72 212 -109 315 -150 386 -232 397 -52 7 -95 -28 -122 -101 -17 -47
-51 -212 -66 -321 -3 -22 -8 -55 -11 -73 -3 -18 -7 -54 -10 -80 -3 -26 -8 -63
-13 -82 -7 -35 -7 -34 -19 27 -33 161 -63 213 -125 213 -50 0 -96 -59 -111
-142 -7 -38 -26 -53 -26 -22 0 31 -61 228 -82 265 -11 20 -31 42 -45 48 -26
12 -69 6 -92 -13 -22 -17 -49 -85 -65 -163 -16 -76 -17 -79 -46 -243 -12 -63
-23 -116 -25 -119 -5 -5 -7 0 -43 105 l-27 79 -253 -3 -253 -2 3 -373 c3 -364
3 -373 26 -414 33 -63 74 -106 129 -133 l48 -25 1080 0 c1024 0 1082 1 1116
18 50 25 104 81 131 136 l23 46 0 795 0 795 -36 56 c-21 31 -51 66 -67 78 -75
53 -32 51 -1171 50 -581 0 -1067 -4 -1081 -8z"/>
<path d="M887 250 c-35 -84 -56 -148 -52 -159 3 -11 21 -26 39 -35 51 -24 771
-24 821 0 18 8 36 23 40 32 3 10 -18 77 -51 159 l-58 143 -340 0 -341 0 -58
-140z"/>
</g>
</svg>
