<svg xmlns="http://www.w3.org/2000/svg" viewBox="0 0 180 44">
  <g fill="none" fill-rule="evenodd">
    <path fill="#fff" d="M21 34V17l-7 13h-2L5 17v17H0V9h5l8 14 8-14h5v25h-5zm14 0V9h11c1.683 0 2.787.24 3.8.722 1.01.48 1.883 1.115 2.615 1.9.73.788 1.305 1.68 1.72 2.677.414.997.62 2 .62 3.01 0 1.62-.42 3.093-1.26 4.42C52.65 23.054 51.51 24.01 50 25l6 9h-6l-5-9h-5v9h-5zm5-13h6.578c.482 0 .932-.104 1.35-.313.418-.21.78-.493 1.083-.852.306-.36.546-.783.724-1.27.177-.487.266-1.008.266-1.565 0-.58-.1-1.113-.304-1.6-.203-.487-.475-.91-.818-1.27-.342-.36-.735-.637-1.178-.834-.444-.197-.894-.296-1.35-.296H40v8zm81 13V9h18v4h-13v7h11v4h-11v10h-5zm24 0V9h5v25h-5zm17-25l6 9 7-9h5l-9 13 9 12h-6l-6-9-6 9h-6l9-12-9-13h6z"/>
    <g transform="translate(-38.000000, -50.000000) translate(38.000000, 48.000000) translate(61.000000, 0.000000) translate(31.345898, 23.439887) rotate(-45.000000) translate(-31.345898, -23.439887) translate(25.564648, -3.950841)">
      <path fill="#BFCAD9" stroke="#8592A5" stroke-width="1.235" d="M10 50.735c0 2.235-1.89 4.046-4.063 4.046-2.486 0-4.375-1.81-4.375-4.045V34.238H10v16.497z"/>
      <g fill="#8592A5" transform="translate(3.437500, 37.350993)">
        <rect width="1.563" height="14.007" rx=".617"/>
        <rect width="1.563" height="14.007" x="3.125" rx=".617"/>
      </g>
      <path fill="#FFF" stroke="#8592A5" stroke-width="1.235" d="M5 7.78L3.125 5.915 5 0h1.563l1.875 5.914L6.562 7.78v20.233H5V7.78z" stroke-linejoin="round"/>
      <rect width="11.563" height="3.735" y="29.258" fill="#EDF2F9" stroke="#8592A5" stroke-width="1.235" rx=".617"/>
    </g>
    <g transform="translate(-38.000000, -50.000000) translate(38.000000, 48.000000) translate(61.000000, 0.000000) translate(23.533398, 23.439887) scale(-1, 1) rotate(-45.000000) translate(-23.533398, -23.439887) translate(17.752148, -3.950841)">
      <path fill="#BFCAD9" stroke="#8592A5" stroke-width="1.235" d="M10 50.735c0 2.235-1.89 4.046-4.063 4.046-2.486 0-4.375-1.81-4.375-4.045V34.238H10v16.497z"/>
      <g fill="#8592A5" transform="translate(3.437500, 37.350993)">
        <rect width="1.563" height="14.007" rx=".617"/>
        <rect width="1.563" height="14.007" x="3.125" rx=".617"/>
      </g>
      <path fill="#FFF" stroke="#8592A5" stroke-width="1.235" d="M5 7.78L3.125 5.915 5 0h1.563l1.875 5.914L6.562 7.78v20.233H5V7.78z" stroke-linejoin="round"/>
      <rect width="11.563" height="3.735" y="29.258" fill="#EDF2F9" stroke="#8592A5" stroke-width="1.235" rx=".617"/>
    </g>
  </g>
</svg>
