<svg xmlns="http://www.w3.org/2000/svg" data-name="Icon 3" viewBox="0 0 200 195"><ellipse cx="100" cy="97.5" fill="#fff9c1" rx="100" ry="97.5"/><ellipse cx="98.84" cy="88.83" fill="#fdd729" rx="90.5" ry="83.5"/><ellipse cx="102.34" cy="91.83" fill="#ffed92" rx="77" ry="76.5"/><g data-name="Bear 1"><path fill="#3a4c7f" d="M49.34 54.33c12.15 0 22 6 22 13.5s-9.85 13.5-22 13.5-22-6-22-13.5 9.85-13.5 22-13.5m0-4c-14.58 0-26 7.69-26 17.5s11.42 17.5 26 17.5 26-7.69 26-17.5-11.42-17.5-26-17.5z"/><path fill="#3a4c7f" d="M49.34 60.33c2.76 0 5 1.12 5 2.5s-2.24 2.5-5 2.5-5-1.12-5-2.5 2.24-2.5 5-2.5m0-4c-5.21 0-9 2.73-9 6.5s3.79 6.5 9 6.5 9-2.73 9-6.5-3.79-6.5-9-6.5z"/><path fill="none" stroke="#3a4c7f" stroke-width="4" stroke-miterlimit="10" d="M49 68v14"/><circle cx="34.34" cy="48.33" r="3" fill="#3a4c7f"/><circle cx="64.34" cy="48.33" r="3" fill="#3a4c7f"/><path fill="none" stroke="#3a4c7f" stroke-width="3" stroke-miterlimit="10" d="M20.34 39.33a9.82 9.82 0 0 1-4-8c0-7.08 3.33-9 9-9 6.67 0 10 7 10 7m43 11a9.82 9.82 0 0 0 4-8c0-7.08-3.33-9-9-9-6.67 0-10 7-10 7"/><path fill="#3a4c7f" d="M72.84 17.33A14.49 14.49 0 0 1 80.7 44a26.44 26.44 0 0 1 3.64 13.33c0 16.57-15.67 30-35 30s-35-13.43-35-30A26.44 26.44 0 0 1 18 44a14.49 14.49 0 1 1 21.93-15.56 40.59 40.59 0 0 1 18.83 0 14.49 14.49 0 0 1 14.08-11.11m0-4a18.42 18.42 0 0 0-16.68 10.53 44.62 44.62 0 0 0-13.63 0 18.5 18.5 0 1 0-29.58 21.23 29.92 29.92 0 0 0-2.6 12.24c0 18.75 17.5 34 39 34s39-15.25 39-34a29.92 29.92 0 0 0-2.6-12.24 18.49 18.49 0 0 0-12.9-31.76z"/></g><g data-name="Bear 2"><path fill="#3a4c7f" d="M146.34 69.33c4.42 0 8 2 8 4.5s-3.58 4.5-8 4.5-8-2-8-4.5 3.58-4.5 8-4.5m0-3c-6.27 0-11 3.22-11 7.5s4.73 7.5 11 7.5 11-3.22 11-7.5-4.73-7.5-11-7.5z"/><circle cx="138.84" cy="52.83" r="4.5" fill="#3a4c7f"/><circle cx="153.84" cy="52.83" r="4.5" fill="#3a4c7f"/><path fill="none" stroke="#3a4c7f" stroke-width="4" stroke-miterlimit="10" d="M146 79v10"/><path fill="#3a4c7f" d="M172.84 18.33a14.76 14.76 0 0 1 14.5 15 15 15 0 0 1-10.12 14.3 36.27 36.27 0 0 1 3.12 13.7c0 9.46-5.15 15.23-15 18-1.45 5.72-9.54 10-19 10-9.31 0-17.37-4.42-19-10-9.89-2.47-15-7.52-15-17a42.24 42.24 0 0 1 3.05-14.73 15 15 0 0 1-10.05-14.27 14.76 14.76 0 0 1 14.5-15 14.44 14.44 0 0 1 12.89 8.14 26.59 26.59 0 0 1 12.61-3.14 29.11 29.11 0 0 1 14.31 3.79 14.48 14.48 0 0 1 13.19-8.79m0-4a18.37 18.37 0 0 0-14.77 7.58 32.66 32.66 0 0 0-12.73-2.58 30.56 30.56 0 0 0-11.11 2.06 18.23 18.23 0 0 0-14.39-7.06 18.78 18.78 0 0 0-18.5 19 19 19 0 0 0 9.09 16.36 43.74 43.74 0 0 0-2.09 12.64c0 10.41 5.26 17.08 16.05 20.34 3.26 6.3 12 10.66 21.95 10.66 10.18 0 19-4.41 22.05-10.76 7.69-2.64 15.95-8.45 15.95-21.24a37.19 37.19 0 0 0-2.07-11.64 19 19 0 0 0 9.07-16.36 18.78 18.78 0 0 0-18.5-19z"/><path fill="#3a4c7f" d="M127.34 29.33l-10 10s-5-2.58-5-7a8 8 0 0 1 8-8c4.42 0 7 5 7 5zm55 3c0 4.42-5 7-5 7l-10-10s2.58-5 7-5a8 8 0 0 1 8 8zm-36 33c10.49 0 19 5.37 19 12s-8.51 12-19 12-19-5.37-19-12 8.51-12 19-12m0-4c-12.9 0-23 7-23 16s10.1 16 23 16 23-7 23-16-10.1-16-23-16z"/></g><g data-name="Bear 3"><path fill="#3a4c7f" d="M71.84 109.33a16.49 16.49 0 0 1 15.38 10.55 35 35 0 0 1 27.43.51A16.5 16.5 0 1 1 134 142.78a35 35 0 1 1-67-1.17 16.5 16.5 0 0 1 4.82-32.28m0-5a21.51 21.51 0 0 0-10.72 40.15 40 40 0 1 0 78.7 1.39 21.5 21.5 0 1 0-27.38-31.67 40.08 40.08 0 0 0-22.79-.42 21.33 21.33 0 0 0-17.81-9.45z"/><circle cx="85.84" cy="138.83" r="6.5" fill="#3a4c7f"/><circle cx="116.84" cy="138.83" r="6.5" fill="#3a4c7f"/><path fill="#3a4c7f" d="M100.84 147.33a16.5 16.5 0 1 1-16.5 16.5 16.5 16.5 0 0 1 16.5-16.5m0-4a20.5 20.5 0 1 0 20.5 20.5 20.52 20.52 0 0 0-20.5-20.5z"/><circle cx="100.34" cy="155.33" r="6" fill="#3a4c7f"/><path fill="none" stroke="#3a4c7f" stroke-width="3" stroke-miterlimit="10" d="M112.34 167.33a6.89 6.89 0 0 1-6 4c-2.76 0-2.75-4-6-4-2.76 0-3.24 4-6 4a5 5 0 0 1-4.9-4"/></g></svg>