<svg xmlns="http://www.w3.org/2000/svg" data-name="Icon 2" viewBox="0 0 202 196"><ellipse cx="101" cy="98" fill="#fff9c1" rx="101" ry="98"/><ellipse cx="101" cy="104" fill="#fdd729" rx="90" ry="84"/><circle cx="111" cy="97" r="77" fill="#ffed92"/><path fill="#3a4c7f" d="M102.12 69.07c4.62 0 10.27 2.58 15 7.27 7.22 7.22 9.44 16.72 4.95 21.21a8.59 8.59 0 0 1-6.25 2.32c-4.62 0-10.27-2.58-15-7.27-7.22-7.22-9.44-16.72-4.95-21.21a8.59 8.59 0 0 1 6.25-2.32m0-5a13.48 13.48 0 0 0-9.79 3.79c-6.54 6.54-4.37 19 4.95 28.28 5.47 5.47 12.39 8.74 18.5 8.74a13.48 13.48 0 0 0 9.79-3.79c6.54-6.54 4.37-19-4.95-28.28-5.47-5.47-12.39-8.74-18.5-8.74z"/><circle cx="67.23" cy="54.07" r="3.5" fill="#3a4c7f" transform="rotate(-45 67.236 54.07)"/><circle cx="75.72" cy="44.17" r="3.5" fill="#3a4c7f" transform="rotate(-45 75.723 44.164)"/><circle cx="77.84" cy="54.77" r="3.5" fill="#3a4c7f" transform="rotate(-45 77.836 54.77)"/><path fill="none" stroke="#3a4c7f" stroke-width="5" stroke-miterlimit="10" d="M138.3 130.79c3.33-3.33 4-8.5-2.82-18.29A1.08 1.08 0 0 1 137 111c9.79 6.78 15 6.15 18.29 2.82 4.88-4.88-4-25.91-21.57-43.49-4.15-4.15-4.2-4.67-6.63-6.66a1.08 1.08 0 0 1 .57-1.91c10.33-1.14 14.48-8.07 14.48-12.56 0-5-8.13-8.49-20.83-8.49-8.17 0-19 2.83-20.84 3.34a1.07 1.07 0 0 0-.49.29l-3.68 3.73a1.08 1.08 0 0 1-1.85-.81c.34-5.92-.35-13.71-3.88-17.24-2.11-2.11-7.41-4.38-7.41-4.38a1.08 1.08 0 0 1-.79-1.16s-1.18-6.66-3.47-9c-3.71-3.71-13.1-3.16-16.62.35-2.93 2.93-3.3 8.69-1.19 12.47a1.07 1.07 0 0 1-.47 1.5c-2 .94-4.18 1.78-5.76 3.36S52.44 37 51.5 39a1.07 1.07 0 0 1-1.5.47c-3.78-2.11-9.53-1.75-12.47 1.19-3.51 3.51-3.36 12.2.35 15.91 2.3 2.3 5.44 4.41 8.32 4.15a1.05 1.05 0 0 1 1.08.67 98.41 98.41 0 0 0 6.5 8.26 18.43 18.43 0 0 0 14.15 5.8 1.08 1.08 0 0 1 .86 1.82 1 1 0 0 0-.23.37c-.51 1.41-3.46 9.78-3.46 17.47"/><g fill="#3a4c7f"><path d="M159.74 92H59c-6.6 0-12 .4-12 7v14.72l1.33-.35a18 18 0 0 1 6.9-4.82 4.34 4.34 0 0 1-.37-1c-.71-2.7 1.28-5.55 4.44-6.38s6.29.68 7 3.38a4.37 4.37 0 0 1 .14 1 18 18 0 0 1 8.38.8l9.64-2.54c5.66-1.49 11.45 1.68 12.86 7.05l16.26 61.82c1.41 5.37-2.07 11-7.73 12.47L95.23 188H152a12 12 0 0 0 12-12V96.26a4.27 4.27 0 0 0-4.26-4.26z"/><path d="M82.36 109.26l-8.15 2.14a14.76 14.76 0 0 0-7.11-.81 4.08 4.08 0 0 0-.13-.9 5 5 0 0 0-9.67 2.54 4.08 4.08 0 0 0 .33.85 14.76 14.76 0 0 0-5.8 4.21l-9.12 2.4a9 9 0 0 0-6.41 11l14.5 55.11a9 9 0 0 0 11 6.41l39.65-10.43a9 9 0 0 0 6.41-11l-14.5-55.12a9 9 0 0 0-11-6.4zM61 108.67a2.48 2.48 0 0 1 3.14 2.33c-.62.12-1.25.26-1.88.43-1 .25-1.89.55-2.77.88a2.47 2.47 0 0 1-.25-.6 2.5 2.5 0 0 1 1.76-3.04zm40.58 65.84L58.07 186l-13.48-51.3 43.52-11.45z"/><path stroke="#3a4c7f" stroke-width="4" stroke-miterlimit="10" d="M50.75 142.39l34.82-9.16M53.8 153.99l34.82-9.16m-32.02 19.8l28.05-7.38m-25.96 19.24l27.07-7.12M66 77l-17 23m90-25l5.04.13L162 98"/></g></svg>