<svg xmlns="http://www.w3.org/2000/svg" data-name="Icon 1" viewBox="0 0 214 194"><ellipse cx="102.5" cy="97" fill="#fff9c1" rx="101.5" ry="97"/><ellipse cx="110" cy="96.5" fill="#fdd729" rx="90" ry="83.5"/><circle cx="103" cy="97" r="76" fill="#fff9c1"/><path fill="#3a4c7f" d="M103.48 86.88a8.59 8.59 0 0 1 6.25 2.32c4.49 4.49 2.28 14-4.95 21.21-4.69 4.69-10.35 7.27-15 7.27a8.59 8.59 0 0 1-6.25-2.32c-4.49-4.49-2.27-14 4.95-21.21 4.69-4.69 10.35-7.27 15-7.27m0-5c-6.11 0-13 3.27-18.5 8.74-9.32 9.32-11.49 21.74-4.98 28.28a13.48 13.48 0 0 0 9.79 3.79c6.11 0 13-3.27 18.5-8.74a30.12 30.12 0 0 0 8.2-14c1.32-5.67.14-10.86-3.25-14.25a13.47 13.47 0 0 0-9.79-3.79z"/><circle cx="127.05" cy="60.57" r="3.5" fill="#3a4c7f" transform="rotate(-45 127.056 60.562)"/><circle cx="136.95" cy="69.05" r="3.5" fill="#3a4c7f" transform="rotate(-45 136.95 69.044)"/><circle cx="126.35" cy="71.17" r="3.5" fill="#3a4c7f" transform="rotate(-45 126.35 71.174)"/><path fill="none" stroke="#3a4c7f" stroke-width="5" stroke-miterlimit="10" d="M140.41 114.62c0-8.17-2.83-19-3.34-20.84a1.07 1.07 0 0 0-.29-.49L133 89.63a1.08 1.08 0 0 1 .81-1.85c5.92.34 13.71-.35 17.24-3.88 2.11-2.11 4.38-7.41 4.38-7.41a1.08 1.08 0 0 1 1.16-.79s6.66-1.18 9-3.47c3.71-3.71 3.16-13.1-.35-16.62-2.93-2.93-8.69-3.3-12.47-1.19a1.07 1.07 0 0 1-1.5-.47c-.94-2-1.78-4.18-3.36-5.76s-3.8-2.42-5.76-3.36a1.07 1.07 0 0 1-.47-1.5c2.11-3.78 1.75-9.53-1.19-12.47-3.51-3.51-12.2-3.36-15.91.35-2.3 2.3-4.41 5.44-4.15 8.32a1.05 1.05 0 0 1-.67 1.08 98.41 98.41 0 0 0-8.26 6.5 18.43 18.43 0 0 0-5.8 14.15 1.08 1.08 0 0 1-1.82.86 1 1 0 0 0-.37-.23c-1.41-.51-9.78-3.46-17.47-3.46-12.7 0-23 4.22-23 9.19 0 4.44 5.15 10.18 15.49 11.16a1.08 1.08 0 0 1 .58 1.9c-2.11 1.78-2 2.17-5.85 6-17.57 17.57-27.86 40-23 44.9 3.33 3.33 8.5 4 18.29-2.82a1.08 1.08 0 0 1 1.5 1.5c-6.78 9.79-6.15 15-2.82 18.29 4.88 4.88 25.91-4 43.49-21.57 4.15-4.15 4.67-4.2 6.66-6.63a1.08 1.08 0 0 1 1.91.57c1.14 10.33 8.07 14.48 12.56 14.48 5.05.05 8.56-8.08 8.56-20.78z"/><path fill="#3a4c7f" d="M35.54 100L54 76c-12.27 2.29-21.65 12-27.76 20.62l-5.71-5.14a11 11 0 1 0-4.72 4.4l6.42 7a82.64 82.64 0 0 0-3.9 7.42 11 11 0 1 0 6.29 3.93l4.76-6.23H53l6-8H35.54zm-25-7A6.5 6.5 0 1 1 17 86.5a6.5 6.5 0 0 1-6.5 6.5zm5 35a6.5 6.5 0 1 1 6.5-6.5 6.5 6.5 0 0 1-6.54 6.5zM28 106a3 3 0 1 1 3-3 3 3 0 0 1-3 3zm168.5-44.75C192.13 56.88 156 118 156 118s45.79-51.46 40.5-56.75zM188 73s3.88-9.5 6-8c2.95 2.08-6 8-6 8z"/><path fill="none" stroke="#3a4c7f" stroke-width="2" stroke-miterlimit="10" d="M198 111s-3.25 1.5-3.5-10 7.5-24 7.5-24 1.25-2.87 1.13-10.5S200.25 55 195 55s-6 6.5-6 10a13.37 13.37 0 0 0 14 13s10 9.25 10 16"/></svg>