<svg xmlns="http://www.w3.org/2000/svg" style="display: none;">
  <symbol id="grizzly" viewBox="0 0 115 130">
    <path fill="#222" d="M56.3 24.89c7.42 0 16.25 3.28 16.25 11.22 0 8.56-3.37 11.31-16.43 11.31-8.94 0-13.69-5.64-13.69-12s5.42-10.53 13.87-10.53m0-1c-9 0-14.87 4.52-14.87 11.52a12.49 12.49 0 0 0 3.8 9.13c2.66 2.55 6.42 3.89 10.89 3.89 13.36 0 17.43-2.88 17.43-12.31-.01-8.38-8.95-12.23-17.25-12.23z"/>
    <circle cx="50.09" cy="23.27" r="1.7" fill="#222"/>
    <circle cx="63.34" cy="23.27" r="1.7" fill="#222"/>
    <path fill="#222" d="M62.17 29.52c.24 1.73-1.88 3.64-4.68 4s-5.44-.83-5.68-2.56 1.76-3.89 4.56-4.28 5.56 1.1 5.8 2.84zM69.58 35.89c.72 0-1 4.23-1 4.23l-1.78-3-1.66 2.5-1.84-2.09-2.19 2.23-1.91-2.27-2.23 2.47-2-2.38-2.51 2.22-1.68-2.19-2.18 2.82s-2.49-3.54-1.8-4.54h23m.26-1H46.22l-.29.25c-.87 1.52.78 4.2 1.84 5.73l.75 1 .84-1 1.35-1.63.92 1.19.65.84.8-.71L54.8 39l1.37 1.6.74.86.76-.85 1.47-1.63 1.2 1.39.71.83.76-.78 1.44-1.48 1.13 1.26.87 1 .71-1.1.84-1.21 1 1.54 1 1.57.79-1.67c.89-1.9 1.76-4.15.84-5.29l-.37-.15z"/>
    <path fill="none" stroke="#222" stroke-miterlimit="10" d="M48.57 41.41s-1.89 2.61.51 3.17c4.45 1 12.79.8 16.95.2 4.44-.64 2.23-3.37 2.23-3.37-4.21 2.42-15.75 3.05-19.69 0z"/>
    <path fill="none" stroke="#222" stroke-miterlimit="10" d="M31.8 22.28a29.45 29.45 0 0 0-1 7.61c0 13.12 7.2 18.16 23 18.16 14.39 0 32.52-4.94 32.52-20.41a17.49 17.49 0 0 0-.38-3.52M72.26 5.42A29 29 0 0 0 56.39.5 21.83 21.83 0 0 0 44 4.5M43.99 4.52c-2.42-3-7.87-4-11.69-4C27.25.5 20.99 2.03 20.99 7.89c0 7.19 5.87 13.85 10.81 14.39A31.75 31.75 0 0 1 43.99 4.52zM94.43 12.02c0-6.19-4.35-9.44-11.3-9.44a20.74 20.74 0 0 0-10.87 2.84c7.16 4.69 12.22 12 13.6 18.67 5.44-1.35 8.57-7.2 8.57-12.07z"/>
    <path fill="none" stroke="#222" stroke-miterlimit="10" d="M96.11 29.83s2.63 9.25 8.63 8.88 7-5.87 6.88-9.37-1.69-8.44-8.44-8.5-12.31 8.44-12.31 8.44a71.77 71.77 0 0 1-10.3 10.91 37.66 37.66 0 0 1-7.21 4.36c-1.83 5.15 7.83 15.6 8.89 20 0 0 7.94-.75 12.38-7.44s11-18.46 11-18.46-6.14 1.77-9.52-8.82zM15.8 26.89A7.62 7.62 0 0 1 8 31.62C2 31.25.33 28.04.46 24.54s2.58-8.65 9.34-8.71 12.31 8.44 12.31 8.44 7.13 10.22 11 15.91c3.69 5.41 7.23 5.89 7.23 5.89 2.46 4.48-6.79 14.45-7.85 18.82 0 0-12.17-8.23-16.6-14.92s-11.29-19-11.29-19 7.91 3.17 11.2-4.08z" stroke-linecap="round"/>
    <path fill="#222" d="M21.33 92.06c7.93 0 13.68 10.48 13.68 20.62s-4.71 14.67-9.83 14.67c-9.75 0-17.29-11.94-17.29-22.08 0-5.87 6.33-13.21 13.45-13.21m0-1c-7.78 0-14.45 7.81-14.45 14.21 0 10.67 8 23.08 18.29 23.08 5 0 10.83-4.1 10.83-15.67a28.35 28.35 0 0 0-4-14.64c-2.81-4.5-6.6-7-10.66-7zM100.97 93.31c7.64 0 13.33 4.8 13.33 13.92s-5.89 19.17-17 19.17h-.5c-7.64-.22-10.67-5.89-10.67-15s3.33-18.08 14.83-18.08m0-1c-10.21 0-15.83 6.78-15.83 19.08 0 10.39 3.92 15.77 11.64 16h.56c11.25 0 18-10.26 18-20.17 0-9.06-5.63-14.92-14.33-14.92z"/>
    <path fill="none" stroke="#222" stroke-miterlimit="10" d="M27.22 129.43c-9.42 0-19.84-12.54-19.84-24.08 0-10.87 7.35-16.6 16.72-16.6 6.87 0 12.33 5.08 14.75 12.33M81.21 105.71c1.83-8.82 9.59-15.82 17.59-15.82 6.72 0 15.5 6.76 15.5 17.58s-7.56 21.92-20.75 21.92" stroke-linecap="round"/>
    <path fill="none" stroke="#222" stroke-miterlimit="10" d="M57.05 101.89s-11.69 21.34-23.25 26c0 0-3.46 1.51-5.52 1.51H26.8" stroke-linecap="round"/>
    <path fill="none" stroke="#222" stroke-miterlimit="10" d="M59.3 101.89c-1-1.46 17.39 23.11 25.5 25.83a37 37 0 0 0 8.81 1.63M27.29 89.12s.67-12.74 5.09-24M82.36 64.73c5.1 13.49 2.44 20.1 2.44 20.1s5.29 3.35 7.72 6.42"/>
    <path fill="#222" d="M54.75 106.14a3.23 3.23 0 0 1 .75-1.1 4.4 4.4 0 0 1 1.11-.84 4.17 4.17 0 0 1 .74-.3 4.4 4.4 0 0 1 .82-.17 5.52 5.52 0 0 1 .84 0 6.92 6.92 0 0 1 .79.16 4.58 4.58 0 0 1 1.26.59 3.71 3.71 0 0 1 .75.61l.25.26-.35-.09c-.22-.06-.51-.18-.88-.26a10.58 10.58 0 0 0-1.2-.25h-.67a4.79 4.79 0 0 0-.68 0 5.8 5.8 0 0 0-1.31.29c-.2.09-.41.14-.59.24s-.37.17-.53.25a10.94 10.94 0 0 0-1.1.61zM58.27 65.89s.29 8 .49 15.87c.06 2 .14 4 .17 5.84v2.69l-.06 2.4c0 .74-.07 1.42-.09 2s-.06 1.25-.1 1.68c-.06.86-.11 1.48-.11 1.48h-.1s-.06-.62-.14-1.48c0-.43-.09-1-.12-1.61s-.1-1.31-.13-2l-.1-2.4c0-.85 0-1.75-.06-2.67 0-1.85 0-3.94.07-5.91.03-7.89.18-15.89.18-15.89h.1zM32.38 86.02a5.78 5.78 0 0 1 1.1-.75l.64-.31.78-.29a7.62 7.62 0 0 1 .9-.26 4.94 4.94 0 0 1 1-.17 13.35 13.35 0 0 1 2.4 0 13.52 13.52 0 0 1 2.62.55c.44.15.9.27 1.34.45l1.31.61.66.32.67.35 1.25.78c.83.53 1.55 1.2 2.32 1.78a8.94 8.94 0 0 1 1.06 1l1 1c.32.32.65.63 1 .95l.82 1 1.5 1.8c.46.56.82 1.13 1.16 1.61l.86 1.26.73 1.11-.89-1-1-1.14c-.39-.43-.81-1-1.29-1.48l-1.61-1.67-.91-.99-1-.89c-.67-.59-1.31-1.26-2.06-1.82s-1.46-1.2-2.26-1.7l-1.19-.76-.59-.38-.62-.31-1.23-.62c-.41-.19-.84-.31-1.25-.47a16.86 16.86 0 0 0-2.43-.69 12.74 12.74 0 0 0-2.26-.13 5.55 5.55 0 0 0-1 .08 7.25 7.25 0 0 0-.91.14l-.79.19-.65.23a8.68 8.68 0 0 0-.89.4 3 3 0 0 0-.29.22zM59.8 100.27a23.85 23.85 0 0 1 2.34-3.48 32.84 32.84 0 0 1 2.9-3.2c.56-.56 1.2-1.08 1.83-1.62s1.34-1 2-1.5 1.42-.94 2.18-1.29a17.35 17.35 0 0 1 2.23-1 13 13 0 0 1 2.18-.71 14.24 14.24 0 0 1 2-.43c.63-.09 1.21-.15 1.72-.2h2.48l-1.14.15-1.3.15c-.49.12-1 .26-1.65.38a13.69 13.69 0 0 0-1.9.57 18.28 18.28 0 0 0-2.05.82 21.55 21.55 0 0 0-2.11 1.06c-.71.4-1.34.92-2.05 1.32s-1.34.94-2 1.43-1.27 1-1.84 1.51-1.15 1-1.65 1.5l-1.42 1.42c-.85.91-1.57 1.66-2 2.23s-.75.89-.75.89z"/>
    <path fill="none" stroke="#222" stroke-miterlimit="10" d="M54.72 54.18s-4 24.94-2 28.52l3.78 4.62.8-36.43c-.99-.34-2.58 3.29-2.58 3.29zM57.3 50.89l6.42 39s3.67-8.55 2.92-13.72c0 0-3.43-24.55-8.13-25.27z"/>
    <path fill="none" stroke="#222" stroke-miterlimit="10" d="M43.64 47.06s-4.73 7.17 6.85 9.64c3.9.83 4.23-2.52 4.23-2.52M62.39 56.81c2.41 3.14 13.41-4.23 8.97-11.52M55.89 50.05s-6 2.28-5.68 6.61M59.02 50.05s7.27 3.09 7 7.09"/>
    <ellipse cx="57.55" cy="49.44" fill="none" stroke="#222" stroke-miterlimit="10" rx="2.16" ry="1.43"/>
  </symbol>
</svg>
