<?xml version="1.0" standalone="no"?>
<!DOCTYPE svg PUBLIC "-//W3C//DTD SVG 20010904//EN"
 "http://www.w3.org/TR/2001/REC-SVG-20010904/DTD/svg10.dtd">
<svg version="1.0" xmlns="http://www.w3.org/2000/svg"
 width="260.000000pt" height="260.000000pt" viewBox="0 0 260.000000 260.000000"
 preserveAspectRatio="xMidYMid meet">
<metadata>
Created by potrace 1.11, written by Peter Selinger 2001-2013
</metadata>
<g transform="translate(0.000000,260.000000) scale(0.100000,-0.100000)"
fill="#000000" stroke="none">
<path d="M510 2482 c-68 -45 -128 -141 -150 -238 -15 -64 -11 -211 7 -293 8
-36 32 -102 53 -146 66 -138 165 -219 429 -352 120 -61 152 -73 180 -69 36 5
111 50 111 66 0 5 -14 24 -31 42 -78 83 -182 263 -213 367 -20 67 -21 155 -2
209 16 45 14 52 -15 45 -57 -15 -56 -244 2 -417 16 -49 27 -91 24 -94 -9 -10
-107 20 -175 52 -86 41 -182 135 -216 211 -21 50 -25 71 -23 144 2 91 8 117
58 224 44 95 41 124 -5 70 -32 -38 -92 -152 -96 -185 -2 -15 -8 -31 -12 -35
-5 -4 -6 40 -3 99 6 121 25 175 86 248 20 25 41 51 45 58 11 18 -24 14 -54 -6z"/>
<path d="M2030 2486 c0 -7 15 -25 34 -40 21 -15 48 -53 67 -92 30 -60 33 -76
37 -177 4 -106 -3 -139 -15 -66 -10 67 -100 219 -129 219 -20 0 -18 -8 15 -70
97 -183 95 -352 -4 -473 -82 -101 -193 -165 -323 -184 l-34 -5 21 41 c40 77
63 197 63 328 0 81 -9 117 -33 139 -28 26 -33 12 -19 -56 32 -149 -32 -322
-190 -520 -33 -41 -60 -81 -60 -87 0 -13 27 -29 93 -57 l38 -16 165 84 c250
128 344 204 418 340 60 108 70 155 71 311 0 155 -12 202 -76 299 -47 70 -139
125 -139 82z"/>
<path d="M1158 1438 c-13 -11 -43 -30 -68 -43 -68 -36 -84 -50 -77 -70 7 -16
8 -15 25 3 9 12 48 37 85 57 62 34 70 36 98 25 44 -19 44 -7 -1 22 l-39 26
-23 -20z"/>
<path d="M1372 1429 c-40 -26 -35 -35 11 -20 32 11 39 9 83 -19 26 -16 54 -30
61 -30 7 0 22 -9 34 -21 11 -11 23 -18 26 -15 14 13 -11 38 -65 65 -32 16 -64
36 -71 45 -18 21 -39 20 -79 -5z"/>
<path d="M615 1406 c-31 -9 -41 -17 -43 -36 -6 -54 124 -227 200 -266 35 -18
83 -20 177 -9 57 7 62 10 46 22 -13 8 -49 13 -109 13 -95 0 -126 11 -185 64
-35 31 -101 136 -101 159 0 20 0 20 20 -1 11 -12 45 -29 75 -37 43 -13 64 -27
105 -71 27 -31 50 -59 50 -63 0 -10 51 -33 58 -26 3 3 -4 12 -16 21 -12 8 -22
21 -22 27 0 7 -24 35 -53 64 -44 42 -65 54 -117 67 -68 18 -77 22 -67 32 9 10
96 -14 152 -41 37 -18 63 -42 98 -90 55 -74 87 -100 116 -90 22 7 34 50 27
100 -2 17 -4 35 -5 42 -1 17 -109 80 -178 104 -69 25 -172 32 -228 15z"/>
<path d="M1805 1407 c-65 -17 -177 -73 -204 -101 -15 -16 -23 -41 -27 -84 -6
-60 -6 -62 21 -72 35 -13 63 4 105 63 67 94 117 128 211 145 29 6 56 8 58 6 9
-8 -10 -17 -69 -31 -52 -12 -68 -21 -113 -68 -55 -56 -102 -115 -93 -115 18 0
56 26 66 45 26 48 99 106 150 120 28 7 59 24 70 37 17 20 19 21 20 5 1 -59
-118 -197 -186 -216 -21 -6 -70 -11 -109 -11 -38 -1 -83 -7 -100 -14 -30 -12
-29 -13 35 -21 124 -15 157 -11 214 29 62 42 108 98 148 174 35 69 35 90 3
102 -43 17 -148 20 -200 7z"/>
<path d="M1088 1202 c-9 -32 9 -62 36 -62 19 0 31 -10 46 -37 14 -25 18 -29
14 -13 -15 54 -44 109 -63 119 -26 14 -28 14 -33 -7z"/>
<path d="M1468 1203 c-22 -26 -48 -79 -48 -100 0 -13 5 -10 20 12 11 16 25 30
32 31 7 0 19 2 26 2 16 2 13 64 -4 69 -6 2 -17 -4 -26 -14z"/>
<path d="M1045 993 c4 -89 20 -131 59 -157 38 -24 55 -19 23 7 -16 12 -28 29
-26 37 2 8 -3 26 -11 40 -8 14 -22 54 -32 90 l-18 65 5 -82z"/>
<path d="M1542 1004 c-1 -14 -13 -48 -27 -75 -13 -27 -21 -49 -18 -49 4 0 -6
-13 -22 -30 -31 -33 -29 -36 10 -18 38 17 66 70 72 138 3 34 2 60 -3 60 -5 0
-11 -12 -12 -26z"/>
<path d="M1209 951 c-12 -9 -22 -33 -25 -56 -10 -75 66 -129 158 -111 66 12
104 119 57 162 -29 26 -160 29 -190 5z m31 -65 c-5 -5 -16 -6 -24 -3 -19 8
-21 43 -3 50 15 5 39 -35 27 -47z m163 8 c-6 -16 -43 -19 -43 -3 0 6 5 20 11
31 11 20 12 21 25 4 7 -10 10 -24 7 -32z"/>
<path d="M1001 764 c-43 -119 -70 -228 -75 -299 -3 -51 1 -68 27 -118 17 -32
55 -82 84 -112 52 -52 137 -115 156 -115 5 0 -23 35 -63 78 -40 43 -85 105
-102 140 -28 56 -31 72 -31 155 0 96 7 169 23 243 15 66 22 114 17 114 -3 0
-19 -39 -36 -86z"/>
<path d="M1564 820 c19 -76 37 -225 37 -319 1 -92 -2 -114 -21 -151 -32 -62
-73 -117 -143 -189 -34 -35 -55 -60 -47 -56 176 100 279 225 284 343 3 63 -79
359 -107 387 -6 7 -8 2 -3 -15z"/>
<path d="M1100 761 c0 -10 72 -234 126 -390 2 -8 6 -12 9 -10 7 8 -23 137 -55
239 -28 88 -79 192 -80 161z"/>
<path d="M1477 747 c-32 -50 -78 -191 -107 -329 -15 -77 7 -35 44 80 20 64 50
152 66 195 28 76 27 99 -3 54z"/>
</g>
</svg>
